name analog
datacolumns 19
datarows 28
range 0.8565 0.87
endheader
time	ground_force_vx	ground_force_vy	ground_force_vz	ground_force_px	ground_force_py	ground_force_pz	l_ground_force_vx	l_ground_force_vy	l_ground_force_vz	l_ground_force_px	l_ground_force_py	l_ground_force_pz	ground_torque_x	ground_torque_y	ground_torque_z	l_ground_torque_x	l_ground_torque_y	l_ground_torque_z
0.8565	-0.0	-0.0	-0.0	-5.238676071166992	51.794090270996094	-329.43182373046875	-0.6159792542457581	-70.83399963378906	-391.0301513671875	-0.0	-0.0	-0.0	-0.0	-0.0	-0.0	78545.6796875	-4636.36572265625	2900.845703125
0.857	-0.0	-0.0	-0.0	-4.164638519287109	50.96736907958984	-328.9569702148437	-0.7306829690933228	-70.09101104736328	-388.4618225097656	-0.0	-0.0	-0.0	-0.0	-0.0	-0.0	78312.453125	-4944.5458984375	2906.188720703125
0.8575	-0.0	-0.0	-0.0	-2.593702554702759	51.16085052490234	-327.3637390136719	-0.5478007793426514	-69.62843322753906	-386.5108642578125	-0.0	-0.0	-0.0	-0.0	-0.0	-0.0	77959.453125	-5249.7822265625	2847.10205078125
0.858	-0.0	-0.0	-0.0	-1.203669190406799	50.59590911865234	-327.2783203125	-0.4493420422077179	-69.21349334716797	-383.5126953125	-0.0	-0.0	-0.0	-0.0	-0.0	-0.0	77818.1796875	-5347.5673828125	2805.3427734375
0.8585	-0.0	-0.0	-0.0	-0.2748256921768188	50.55188751220703	-326.4567565917969	-0.8718084692955017	-68.40361022949219	-381.827392578125	-0.0	-0.0	-0.0	-0.0	-0.0	-0.0	77189.6171875	-5563.83154296875	2747.919189453125
0.859	-0.0	-0.0	-0.0	-0.4384080171585083	50.16550064086914	-324.3373718261719	-0.6576989889144897	-68.02906036376953	-380.57525634765625	-0.0	-0.0	-0.0	-0.0	-0.0	-0.0	77047.359375	-5801.0244140625	2852.489013671875
0.8595	-0.0	-0.0	-0.0	-0.3561694622039795	49.668087005615234	-321.39373779296875	-0.8569226264953613	-67.28609466552734	-379.7320861816406	-0.0	-0.0	-0.0	-0.0	-0.0	-0.0	76598.3515625	-5922.87744140625	2777.9814453125
0.86	-0.0	-0.0	-0.0	-1.01069438457489	48.63584518432617	-318.39385986328125	-1.0795557498931885	-66.24127197265625	-375.6871337890625	-0.0	-0.0	-0.0	-0.0	-0.0	-0.0	76091.859375	-6106.3671875	2570.473388671875
0.8605	-0.0	-0.0	-0.0	-1.583160161972046	47.93085479736328	-316.3016357421875	-1.2419509887695312	-65.34312438964844	-372.630859375	-0.0	-0.0	-0.0	-0.0	-0.0	-0.0	75589.125	-6208.28271484375	2540.941162109375
0.861	-0.0	-0.0	-0.0	-2.5123729705810547	47.6992301940918	-309.7961120605469	-1.9295068979263303	-64.43804931640625	-368.5291748046875	-0.0	-0.0	-0.0	-0.0	-0.0	-0.0	74859.7109375	-6276.37939453125	2456.73046875
0.8615	-0.0	-0.0	-0.0	-3.3237297534942627	46.430999755859375	-306.9705505371094	-2.446937084197998	-63.23832702636719	-366.6673889160156	-0.0	-0.0	-0.0	-0.0	-0.0	-0.0	74660.0078125	-6460.501953125	2283.631591796875
0.862	-0.0	-0.0	-0.0	-4.141122341156006	45.76130294799805	-304.70281982421875	-2.579608917236328	-62.72300720214844	-363.9039611816406	-0.0	-0.0	-0.0	-0.0	-0.0	-0.0	73925.2109375	-6633.29248046875	2291.12255859375
0.8625	-0.0	-0.0	-0.0	-4.61053466796875	45.12326049804688	-300.42340087890625	-2.720944166183472	-61.71442031860352	-361.0227661132813	-0.0	-0.0	-0.0	-0.0	-0.0	-0.0	73202.140625	-6695.6318359375	2214.728759765625
0.863	-0.0	-0.0	-0.0	-5.094185829162598	44.283653259277344	-298.6416931152344	-2.5064949989318848	-61.29524993896485	-359.21990966796875	-0.0	-0.0	-0.0	-0.0	-0.0	-0.0	73001.265625	-7061.86669921875	2333.66259765625
0.8635	-0.0	-0.0	-0.0	-5.291410446166992	43.31737518310547	-300.6115417480469	-2.2979676723480225	-60.73410034179688	-358.8714599609375	-0.0	-0.0	-0.0	-0.0	-0.0	-0.0	72705.859375	-7395.58251953125	2465.13037109375
0.864	-0.0	-0.0	-0.0	-4.934435844421387	42.70737838745117	-298.2880554199219	-1.8114354610443115	-60.5232048034668	-357.9927673339844	-0.0	-0.0	-0.0	-0.0	-0.0	-0.0	72710.6171875	-7562.265625	2586.100341796875
0.8645	-0.0	-0.0	-0.0	-3.901499748229981	42.74094772338867	-299.45751953125	-0.9615820050239564	-60.4349365234375	-359.62615966796875	-0.0	-0.0	-0.0	-0.0	-0.0	-0.0	72922.09375	-8375.9697265625	2836.47412109375
0.865	-0.0	-0.0	-0.0	-2.9302239418029785	43.166534423828125	-303.2456970214844	0.1449726819992065	-60.18423080444336	-360.2329406738281	-0.0	-0.0	-0.0	-0.0	-0.0	-0.0	73232.234375	-8519.197265625	3018.325439453125
0.8655	-0.0	-0.0	-0.0	-1.6468477249145508	43.33434295654297	-306.6143798828125	1.6201059818267822	-60.77928924560547	-364.4225463867188	-0.0	-0.0	-0.0	-0.0	-0.0	-0.0	74202.7890625	-9250.9521484375	3398.666015625
0.866	-0.0	-0.0	-0.0	0.8106554746627808	44.043983459472656	-310.4989013671875	3.244903087615967	-60.92810821533203	-367.2698974609375	-0.0	-0.0	-0.0	-0.0	-0.0	-0.0	74845.3046875	-9607.435546875	3780.633056640625
0.8665	-0.0	-0.0	-0.0	2.84375	45.07311248779297	-316.7589111328125	4.650420188903809	-61.8762092590332	-372.1956176757813	-0.0	-0.0	-0.0	-0.0	-0.0	-0.0	75881.0859375	-10143.8779296875	4221.63427734375
0.867	-0.0	-0.0	-0.0	4.525251388549805	46.34780883789063	-324.32537841796875	5.844950199127197	-62.51805877685547	-377.5804138183594	-0.0	-0.0	-0.0	-0.0	-0.0	-0.0	76834.40625	-10600.01953125	4439.15234375
0.8675	-0.0	-0.0	-0.0	6.054812908172607	47.4058837890625	-329.3278503417969	7.212746143341064	-63.73086166381836	-381.6761779785156	-0.0	-0.0	-0.0	-0.0	-0.0	-0.0	77820.953125	-10856.712890625	4700.98095703125
0.868	-0.0	-0.0	-0.0	6.818015098571777	48.86979293823242	-336.6848449707031	7.618578910827637	-64.00630187988281	-385.0610046386719	-0.0	-0.0	-0.0	-0.0	-0.0	-0.0	78290.546875	-11198.1884765625	4871.15625
0.8685	-0.0	-0.0	-0.0	7.239196300506592	50.206687927246094	-342.32989501953125	8.768878936767578	-65.19483184814453	-389.2091064453125	-0.0	-0.0	-0.0	-0.0	-0.0	-0.0	79301.3828125	-11583.099609375	5193.46044921875
0.869	-0.0	-0.0	-0.0	7.825378894805908	51.87469482421875	-348.1872253417969	9.505372047424316	-65.77313995361328	-391.8005676269531	-0.0	-0.0	-0.0	-0.0	-0.0	-0.0	79957.484375	-11657.9482421875	5439.33056640625
0.8695	-0.0	-0.0	-0.0	7.531820297241211	53.058441162109375	-353.7353210449219	9.822463035583496	-66.2169418334961	-395.29193115234375	-0.0	-0.0	-0.0	-0.0	-0.0	-0.0	80702.4140625	-11771.87109375	5516.56005859375
0.87	-0.0	-0.0	-0.0	8.054597854614258	53.97515487670898	-358.0736999511719	10.177143096923828	-66.5342025756836	-399.1321411132813	-0.0	-0.0	-0.0	-0.0	-0.0	-0.0	81202.9921875	-11917.197265625	5588.61669921875
